<?xml version="1.0" encoding="iso-8859-1"?>
<!-- Generator: Adobe Illustrator 16.0.0, SVG Export Plug-In . SVG Version: 6.00 Build 0)  -->
<!DOCTYPE svg PUBLIC "-//W3C//DTD SVG 1.1//EN" "http://www.w3.org/Graphics/SVG/1.1/DTD/svg11.dtd">
<svg version="1.1" id="Capa_1" xmlns="http://www.w3.org/2000/svg" xmlns:xlink="http://www.w3.org/1999/xlink" x="0px" y="0px"
	 width="304.055px" height="304.056px" viewBox="0 0 304.055 304.056" style="enable-background:new 0 0 304.055 304.056;"
	 xml:space="preserve">
<g>
	<g>
		<polygon points="90.397,68.565 63.64,142.42 63.64,300.575 284.602,265.691 290.999,116.253 228.156,58.43 		"/>
		<path d="M106.532,11.617c1.679-4.519,0.248-5.45-3.212-2.101L78.98,33.12l16.029-1.484L60.157,75.521V51.377l-47.1,45.684v141.874
			l47.1,65.121l-2.328-162.229L106.532,11.617z"/>
		<path d="M63.64,44.146V66.39l23.548-29.658l-18.338,1.7C65.979,38.705,63.64,41.262,63.64,44.146z"/>
		<path d="M245.51,37.114c0-2.882-2.336-5.447-5.21-5.716l-15.979-1.482L202.395,3.733c-3.091-3.688-3.718-3.256-1.414,0.965
			l26.631,48.611l63.387,56.257L245.51,55.234V37.114L245.51,37.114z"/>
		<path d="M112.57,10.882L94.073,62.095l127.887-8.973L196.92,7.319c-2.32-4.229-8.089-7.501-12.909-7.312L124.25,2.339
			C119.433,2.523,114.205,6.347,112.57,10.882z M181.512,21.811c4.809-0.248,10.473,3.038,12.635,7.34l4.619,9.152l-82.395,4.854
			l3.346-10.038c1.524-4.569,6.66-8.472,11.47-8.72L181.512,21.811z"/>
	</g>
</g>
</svg>
